# xmcd CD database file
#
# Track frame offsets:
#	150
#	34293
#	62525
#	105018
#	119840
#	131853
#	150908
#	168611
#	187368
#	228956
#
# Disc length: 3579 seconds
#
# Revision: 0
# Processed by: cddbd v1.5.2PL0 Copyright (c) Steve Scherf et al.
# Submitted via: CDex 1.51
#
DISCID=860df90a
DTITLE=Bar Kokhba Sextet - Live At The Knitting Factory - 5/16/97 Disc 2
DYEAR=1900
DGENRE=Jazz
TTITLE0=Lilin
TTITLE1=Khebar
TTITLE2=Mahlah
TTITLE3=Lachish
TTITLE4=Eitan
TTITLE5=Tahah
TTITLE6=Elilah
TTITLE7=Sippur
TTITLE8=Gevurah
TTITLE9=Kol Nidre
EXTD=
EXTT0=
EXTT1=
EXTT2=
EXTT3=
EXTT4=
EXTT5=
EXTT6=
EXTT7=
EXTT8=
EXTT9=
PLAYORDER=
